<?xml version="1.0" standalone="yes"?>
<svg xmlns="http://www.w3.org/2000/svg" width="500" height="500">
<path style="fill:#010101; stroke:none;" d="M0 0L0 500L500 500L500 0L0 0z"/>
<path style="fill:#eeeeee; stroke:none;" d="M109 385L109 384C103.151 382.011 98.033 377.171 96.5332 371C92.5083 354.44 96 333.046 96 316L96 137C96 116.41 88.5253 84.5376 115 79C107.817 76.2247 98.6839 83.5259 96.1481 90C91.0523 103.01 95 124.09 95 138L95 327C95 342.165 87.5406 382.122 109 385M295.667 78.3333L296.333 78.6667L295.667 78.3333z"/>
<path style="fill:#9f9f9f; stroke:none;" d="M112 79L112 80L298 80L280 79L243 79L112 79z"/>
<path style="fill:#eeeeee; stroke:none;" d="M298 79L298 80C306.1 81.4673 310.045 87.3261 314 94C315.339 85.8057 304.948 79.7155 298 79z"/>
<path style="fill:#9f9f9f; stroke:none;" d="M108 80L109 81L108 80z"/>
<path style="fill:#5c5c5c; stroke:none;" d="M109.667 80.3333L110.333 80.6667L109.667 80.3333z"/>
<path style="fill:#2d2d2d; stroke:none;" d="M313 262L309 263L305 250L305 339C305 347.926 308.348 365.523 302.347 372.775C295.395 381.178 272.846 377 263 377L149 377C138.315 377 113.871 381.565 106.703 371.892C102.403 366.089 104 356.779 104 350L104 300L104 167C104 144.928 102.176 121.981 104.094 100C105.638 82.3059 133.728 88 146 88L259 88C269.793 88 292.028 83.8028 300.891 90.6528C309.258 97.119 305 120.365 305 130L305 246L311 247L311 248L305 247L310 262L311 262C312.119 258.216 314.007 249.857 311 247C316.527 239.11 313 220.512 313 211L313 119C313 107.432 316.433 90.3062 304.985 82.9946C296.012 77.2647 281.197 80 271 80L191 80L128 80C118.748 80 108.108 78.4811 101.214 86.0548C96.0528 91.724 97 98.8914 97 106L97 147L97 314L97 359C97 366.58 96.0391 374.11 102.105 379.786C111.323 388.411 134.144 384 146 384L263 384C275.46 384 300.905 389.004 309.351 377.907C315.865 369.348 313 354.117 313 344L313 262z"/>
<path style="fill:#5c5c5c; stroke:none;" d="M299.667 80.3333L300.333 80.6667L299.667 80.3333z"/>
<path style="fill:#9f9f9f; stroke:none;" d="M301 80L302 81L301 80M106 81L107 82L106 81z"/>
<path style="fill:#5c5c5c; stroke:none;" d="M107 81L108 82L107 81M302 81L303 82L302 81z"/>
<path style="fill:#9f9f9f; stroke:none;" d="M303 81L304 82L303 81M104 82L105 83L104 82z"/>
<path style="fill:#5c5c5c; stroke:none;" d="M304 82L305 83L304 82z"/>
<path style="fill:#9f9f9f; stroke:none;" d="M305 82L306 83L305 82z"/>
<path style="fill:#5c5c5c; stroke:none;" d="M103 83L104 84L103 83z"/>
<path style="fill:#9f9f9f; stroke:none;" d="M306 83L307 84L306 83z"/>
<path style="fill:#5c5c5c; stroke:none;" d="M102 84L103 85L102 84M307 84L308 85L307 84z"/>
<path style="fill:#9f9f9f; stroke:none;" d="M100 85L101 86L100 85z"/>
<path style="fill:#5c5c5c; stroke:none;" d="M101 85L102 86L101 85M308 85L309 86L308 85M100 86L101 87L100 86M309 86L310 87L309 86M99 87L100 88L99 87z"/>
<path style="fill:#9f9f9f; stroke:none;" d="M310 87L311 88L310 87M98 88L99 89L98 88z"/>
<path style="fill:#5c5c5c; stroke:none;" d="M111 88L111 89L298 89L280 88L242 88L111 88M310 88L311 89L310 88M98 89L99 90L98 89M109 89L108 91L109 89z"/>
<path style="fill:#9f9f9f; stroke:none;" d="M110 89L111 90L110 89z"/>
<path style="fill:#eeeeee; stroke:none;" d="M111 375C100.511 358.855 106 329.942 106 311L106 157L106 110C106 104.119 104.598 95.6793 110.133 91.7423C118.472 85.8121 140.955 90 151 90L260 90C271.106 90 299.456 84.5744 303 98C304.857 92.5732 299.935 89.5255 295 89.0941C283.504 88.0894 271.541 89 260 89L156 89C143.313 89 122.816 85.0555 111.019 89.7423C104.336 92.3972 105 100.092 105 106L105 153L105 318L105 356C105 363.722 104.245 369.966 111 375z"/>
<path style="fill:#9f9f9f; stroke:none;" d="M298 89L299 90L298 89z"/>
<path style="fill:#5c5c5c; stroke:none;" d="M299 89L300 90L299 89z"/>
<path style="fill:#9f9f9f; stroke:none;" d="M311 89L312 90L311 89M97 90L98 91L97 90z"/>
<path style="fill:#010101; stroke:none;" d="M111.055 90.7423C101.883 94.5308 106 118.866 106 127L106 241L106 335C106 344.255 102.432 363.097 107.742 370.941C110.869 375.561 116.083 375 121 375L152 375L254 375C266.319 375 286.538 378.903 297.956 374.258C307.498 370.376 302.902 345.533 303.004 337C303.456 298.965 303.184 261.006 303.001 223C302.843 190.312 304.129 157.591 303.259 125C303.01 115.65 307.36 101.708 301.721 93.2785C299.029 89.2537 293.207 90.0016 289 90L257 90L155 90C142.746 90 122.388 86.061 111.055 90.7423z"/>
<path style="fill:#9f9f9f; stroke:none;" d="M301 90L302 91L301 90z"/>
<path style="fill:#5c5c5c; stroke:none;" d="M311 90L312 91L311 90M97 91L98 92L97 91z"/>
<path style="fill:#9f9f9f; stroke:none;" d="M107 91L108 92L107 91M302 91L303 92L302 91M312 91L313 92L312 91M96 92L96 95L97 95L96 92M106 92L107 93L106 92z"/>
<path style="fill:#5c5c5c; stroke:none;" d="M303 92L304 93L303 92M312 92L313 93L312 92M105 93L106 94L105 93z"/>
<path style="fill:#9f9f9f; stroke:none;" d="M303 93L304 94L303 93M313 93L313 97L314 97L313 93M105.333 94.6667L105.667 95.3333L105.333 94.6667z"/>
<path style="fill:#5c5c5c; stroke:none;" d="M304.333 94.6667L304.667 95.3333L304.333 94.6667M96 95L96 370L97 370L97 176L97 120L96 95z"/>
<path style="fill:#eeeeee; stroke:none;" d="M314 95L314 369L315 369L315 176L315 120L314 95z"/>
<path style="fill:#5c5c5c; stroke:none;" d="M104 96L104 368L105 368L105 176L105 121L104 96z"/>
<path style="fill:#9f9f9f; stroke:none;" d="M304 96L304 369L305 369L305 176L305 121L304 96z"/>
<path style="fill:#5c5c5c; stroke:none;" d="M313 97L313 245L314 245L314 141C314 128.532 317.807 108.456 313 97z"/>
<path style="fill:#eeeeee; stroke:none;" d="M317 110L317 122L335 127L335 126C325.21 122.814 318.009 122.581 318 111L332 115L317 110z"/>
<path style="fill:#5c5c5c; stroke:none;" d="M318 111L319 112L318 111z"/>
<path style="fill:#9f9f9f; stroke:none;" d="M319 111L320 112L319 111z"/>
<path style="fill:#2d2d2d; stroke:none;" d="M318 112C318.039 122.967 327.912 123.368 337 126.33C352.517 131.388 368.228 136.646 384 140.883C389.8 142.442 399.001 144.563 401.218 151.015C402.881 155.856 399.104 162.405 397.72 167C393.889 179.717 389.514 192.274 385.721 205C370.193 257.102 354.249 309.647 336.424 361C331.737 374.505 327.708 388.38 323.344 402C321.384 408.119 320.632 415.744 313.996 418.781C306.267 422.319 288.816 412.713 281 410.424C251.68 401.839 225.804 391 195 391C204.394 397.701 220.881 400.25 232 403.427C251.475 408.993 270.596 415.874 290 421.72C300.145 424.776 312.453 431.924 321.981 423.772C333.087 414.272 337.172 387.814 340.883 374C350.43 338.464 362.653 302.912 374.333 268C384.079 238.87 393.415 209.429 402.28 180C405.412 169.602 413.08 155.667 407.547 145.004C403.19 136.607 393.067 135.497 385 132.833C363.403 125.7 340.405 115.855 318 112z"/>
<path style="fill:#5c5c5c; stroke:none;" d="M321 112L322 113L321 112z"/>
<path style="fill:#9f9f9f; stroke:none;" d="M322 112L323 113L322 112z"/>
<path style="fill:#5c5c5c; stroke:none;" d="M323.667 113.333L324.333 113.667L323.667 113.333z"/>
<path style="fill:#9f9f9f; stroke:none;" d="M325 113L326 114L325 113z"/>
<path style="fill:#5c5c5c; stroke:none;" d="M326.667 114.333L327.333 114.667L326.667 114.333z"/>
<path style="fill:#9f9f9f; stroke:none;" d="M328 114L329 115L328 114z"/>
<path style="fill:#5c5c5c; stroke:none;" d="M330 115L331 116L330 115z"/>
<path style="fill:#9f9f9f; stroke:none;" d="M331.667 115.333L332.333 115.667L331.667 115.333z"/>
<path style="fill:#eeeeee; stroke:none;" d="M333 115L333 116L347 120L347 119L333 115z"/>
<path style="fill:#5c5c5c; stroke:none;" d="M334 116L335 117L334 116z"/>
<path style="fill:#9f9f9f; stroke:none;" d="M335 116L336 117L335 116z"/>
<path style="fill:#5c5c5c; stroke:none;" d="M336.667 117.333L337.333 117.667L336.667 117.333z"/>
<path style="fill:#9f9f9f; stroke:none;" d="M338 117L339 118L338 117z"/>
<path style="fill:#5c5c5c; stroke:none;" d="M340 118L341 119L340 118z"/>
<path style="fill:#9f9f9f; stroke:none;" d="M341 118L342 119L341 118z"/>
<path style="fill:#5c5c5c; stroke:none;" d="M342.667 119.333L343.333 119.667L342.667 119.333z"/>
<path style="fill:#9f9f9f; stroke:none;" d="M344 119L345 120L344 119z"/>
<path style="fill:#5c5c5c; stroke:none;" d="M318 120L319 121L318 120M345.667 120.333L346.333 120.667L345.667 120.333z"/>
<path style="fill:#9f9f9f; stroke:none;" d="M347 120L348 121L347 120z"/>
<path style="fill:#eeeeee; stroke:none;" d="M348 120L348 121L351 121L348 120M127 121C122.098 137.628 150.815 132 161 132L243 132C255.419 132 271.083 134.523 283 131L283 130C270.21 133.045 255.118 131 242 131L163 131C153.889 131 122.657 136.295 129 121L127 121z"/>
<path style="fill:#9f9f9f; stroke:none;" d="M129 121L130 122L129 121z"/>
<path style="fill:#eeeeee; stroke:none;" d="M130 121L130 122L247 122C255.938 122 282.105 117.265 283 129C288.048 116.604 256.136 121 249 121L130 121M303 121L303 128L304 128L303 121z"/>
<path style="fill:#9f9f9f; stroke:none;" d="M320.667 121.333L321.333 121.667L320.667 121.333z"/>
<path style="fill:#5c5c5c; stroke:none;" d="M322 121L323 122L322 121M348.667 121.333L349.333 121.667L348.667 121.333z"/>
<path style="fill:#9f9f9f; stroke:none;" d="M350.667 121.333L351.333 121.667L350.667 121.333z"/>
<path style="fill:#eeeeee; stroke:none;" d="M352 121L352 122L373 128L373 127L352 121z"/>
<path style="fill:#5c5c5c; stroke:none;" d="M128 122L129 123L128 122z"/>
<path style="fill:#2d2d2d; stroke:none;" d="M128 130L186 130L226 130L271 130C273.997 130 285.932 130.044 280.968 123.603C277.402 118.975 257.58 122 252 122L166 122C155.79 122 128.159 116.618 128 130z"/>
<path style="fill:#5c5c5c; stroke:none;" d="M281 122L282 123L281 122z"/>
<path style="fill:#9f9f9f; stroke:none;" d="M324 122L325 123L324 122z"/>
<path style="fill:#5c5c5c; stroke:none;" d="M325.667 122.333L326.333 122.667L325.667 122.333M353 122L354 123L353 122z"/>
<path style="fill:#9f9f9f; stroke:none;" d="M354 122L355 123L354 122M127 123L127 129L128 129L127 123M282 123L281 131L282 131L282 123M327 123L328 124L327 123z"/>
<path style="fill:#5c5c5c; stroke:none;" d="M328 123L329 124L328 123M356 123L357 124L356 123z"/>
<path style="fill:#9f9f9f; stroke:none;" d="M357 123L358 124L357 123M330 124L331 125L330 124z"/>
<path style="fill:#5c5c5c; stroke:none;" d="M331 124L332 125L331 124M359 124L360 125L359 124z"/>
<path style="fill:#9f9f9f; stroke:none;" d="M360 124L361 125L360 124M333 125L334 126L333 125z"/>
<path style="fill:#5c5c5c; stroke:none;" d="M334 125L335 126L334 125M361.667 125.333L362.333 125.667L361.667 125.333z"/>
<path style="fill:#9f9f9f; stroke:none;" d="M363 125L364 126L363 125M335.667 126.333L336.333 126.667L335.667 126.333z"/>
<path style="fill:#5c5c5c; stroke:none;" d="M337 126L338 127L337 126M364.667 126.333L365.333 126.667L364.667 126.333z"/>
<path style="fill:#9f9f9f; stroke:none;" d="M366 126L367 127L366 126z"/>
<path style="fill:#eeeeee; stroke:none;" d="M336 127L336 128L373 139L373 138L336 127z"/>
<path style="fill:#9f9f9f; stroke:none;" d="M339 127L340 128L339 127z"/>
<path style="fill:#5c5c5c; stroke:none;" d="M340 127L341 128L340 127M367.667 127.333L368.333 127.667L367.667 127.333z"/>
<path style="fill:#9f9f9f; stroke:none;" d="M369 127L370 128L369 127M342.667 128.333L343.333 128.667L342.667 128.333z"/>
<path style="fill:#5c5c5c; stroke:none;" d="M344 128L345 129L344 128M371 128L372 129L371 128z"/>
<path style="fill:#9f9f9f; stroke:none;" d="M372.667 128.333L373.333 128.667L372.667 128.333z"/>
<path style="fill:#eeeeee; stroke:none;" d="M374 128L374 129L377 129L374 128z"/>
<path style="fill:#5c5c5c; stroke:none;" d="M281 129L282 130L281 129z"/>
<path style="fill:#9f9f9f; stroke:none;" d="M346 129L347 130L346 129z"/>
<path style="fill:#5c5c5c; stroke:none;" d="M347.667 129.333L348.333 129.667L347.667 129.333M375 129L376 130L375 129z"/>
<path style="fill:#9f9f9f; stroke:none;" d="M376.667 129.333L377.333 129.667L376.667 129.333z"/>
<path style="fill:#eeeeee; stroke:none;" d="M378 129L378 130L392 134L392 133L378 129z"/>
<path style="fill:#9f9f9f; stroke:none;" d="M128 130L129 131L128 130z"/>
<path style="fill:#5c5c5c; stroke:none;" d="M129 130L129 131L281 131C269.068 125.993 247.991 130 235 130L129 130z"/>
<path style="fill:#9f9f9f; stroke:none;" d="M349 130L350 131L349 130z"/>
<path style="fill:#5c5c5c; stroke:none;" d="M350.667 130.333L351.333 130.667L350.667 130.333M378 130L379 131L378 130z"/>
<path style="fill:#9f9f9f; stroke:none;" d="M379 130L380 131L379 130M352 131L353 132L352 131z"/>
<path style="fill:#5c5c5c; stroke:none;" d="M353 131L354 132L353 131M380.667 131.333L381.333 131.667L380.667 131.333z"/>
<path style="fill:#9f9f9f; stroke:none;" d="M382 131L383 132L382 131M355 132L356 133L355 132z"/>
<path style="fill:#5c5c5c; stroke:none;" d="M356 132L357 133L356 132M384 132L385 133L384 132z"/>
<path style="fill:#9f9f9f; stroke:none;" d="M385 132L386 133L385 132M358 133L359 134L358 133z"/>
<path style="fill:#5c5c5c; stroke:none;" d="M359 133L360 134L359 133M386.667 133.333L387.333 133.667L386.667 133.333z"/>
<path style="fill:#9f9f9f; stroke:none;" d="M388 133L389 134L388 133M361.667 134.333L362.333 134.667L361.667 134.333z"/>
<path style="fill:#5c5c5c; stroke:none;" d="M363 134L364 135L363 134M390 134L391 135L390 134z"/>
<path style="fill:#9f9f9f; stroke:none;" d="M391.667 134.333L392.333 134.667L391.667 134.333z"/>
<path style="fill:#eeeeee; stroke:none;" d="M393 134L393 135L398 136L398 135L393 134z"/>
<path style="fill:#9f9f9f; stroke:none;" d="M365 135L366 136L365 135z"/>
<path style="fill:#5c5c5c; stroke:none;" d="M366 135L367 136L366 135M394 135L395 136L394 135z"/>
<path style="fill:#9f9f9f; stroke:none;" d="M395 135L396 136L395 135z"/>
<path style="fill:#eeeeee; stroke:none;" d="M303 136L303 177L304 177C304 165.304 307.511 146.75 303 136z"/>
<path style="fill:#9f9f9f; stroke:none;" d="M368 136L369 137L368 136z"/>
<path style="fill:#5c5c5c; stroke:none;" d="M369.667 136.333L370.333 136.667L369.667 136.333M397 136L398 137L397 136z"/>
<path style="fill:#9f9f9f; stroke:none;" d="M398 136L399 137L398 136z"/>
<path style="fill:#eeeeee; stroke:none;" d="M399 136L399 137L409 147L410 147C408.638 141.317 404.604 137.528 399 136z"/>
<path style="fill:#9f9f9f; stroke:none;" d="M371 137L372 138L371 137z"/>
<path style="fill:#5c5c5c; stroke:none;" d="M372 137L373 138L372 137M399 137L400 138L399 137z"/>
<path style="fill:#9f9f9f; stroke:none;" d="M400 137L401 138L400 137M373.667 138.333L374.333 138.667L373.667 138.333z"/>
<path style="fill:#5c5c5c; stroke:none;" d="M375.667 138.333L376.333 138.667L375.667 138.333M401 138L402 139L401 138z"/>
<path style="fill:#9f9f9f; stroke:none;" d="M402 138L403 139L402 138z"/>
<path style="fill:#eeeeee; stroke:none;" d="M374 139L374 140C383.311 142.154 399.128 144.444 400 156L401 156C400.695 143.382 384.467 140.54 374 139z"/>
<path style="fill:#9f9f9f; stroke:none;" d="M377 139L378 140L377 139z"/>
<path style="fill:#5c5c5c; stroke:none;" d="M378 139L379 140L378 139z"/>
<path style="fill:#9f9f9f; stroke:none;" d="M403 139L404 140L403 139M380.667 140.333L381.333 140.667L380.667 140.333z"/>
<path style="fill:#5c5c5c; stroke:none;" d="M382 140L383 141L382 140z"/>
<path style="fill:#9f9f9f; stroke:none;" d="M404 140L405 141L404 140M384 141L385 142L384 141z"/>
<path style="fill:#5c5c5c; stroke:none;" d="M385.667 141.333L386.333 141.667L385.667 141.333M405 141L406 142L405 141z"/>
<path style="fill:#9f9f9f; stroke:none;" d="M387 142L388 143L387 142z"/>
<path style="fill:#5c5c5c; stroke:none;" d="M388.667 142.333L389.333 142.667L388.667 142.333z"/>
<path style="fill:#9f9f9f; stroke:none;" d="M406 142L407 143L406 142M390 143L391 144L390 143z"/>
<path style="fill:#5c5c5c; stroke:none;" d="M391.667 143.333L392.333 143.667L391.667 143.333z"/>
<path style="fill:#9f9f9f; stroke:none;" d="M407 143L408 144L407 143M393 144L394 145L393 144z"/>
<path style="fill:#5c5c5c; stroke:none;" d="M394 144L395 145L394 144M407 144L408 145L407 144z"/>
<path style="fill:#9f9f9f; stroke:none;" d="M396 145L397 146L396 145M408 145L409 146L408 145M397 146L398 147L397 146z"/>
<path style="fill:#5c5c5c; stroke:none;" d="M398 146L399 147L398 146M408 146L409 147L408 146M399 147L400 148L399 147z"/>
<path style="fill:#9f9f9f; stroke:none;" d="M409.333 147.667L409.667 148.333L409.333 147.667z"/>
<path style="fill:#5c5c5c; stroke:none;" d="M400 148L401 149L400 148z"/>
<path style="fill:#eeeeee; stroke:none;" d="M410 148L410 158L411 158L410 148z"/>
<path style="fill:#9f9f9f; stroke:none;" d="M400 149L401 150L400 149z"/>
<path style="fill:#5c5c5c; stroke:none;" d="M409 149L409 152L410 152L409 149M401 150L401 156L402 156L401 150M409 155L409 158L410 158L409 155z"/>
<path style="fill:#9f9f9f; stroke:none;" d="M400.333 156.667L400.667 157.333L400.333 156.667z"/>
<path style="fill:#eeeeee; stroke:none;" d="M399.333 157.667L399.667 158.333L399.333 157.667z"/>
<path style="fill:#5c5c5c; stroke:none;" d="M400 158L401 159L400 158z"/>
<path style="fill:#9f9f9f; stroke:none;" d="M409.333 158.667L409.667 159.333L409.333 158.667M399 159L400 160L399 159z"/>
<path style="fill:#eeeeee; stroke:none;" d="M410 159L411 160L410 159M398.333 160.667L398.667 161.333L398.333 160.667z"/>
<path style="fill:#5c5c5c; stroke:none;" d="M399.333 160.667L399.667 161.333L399.333 160.667M408.333 160.667L408.667 161.333L408.333 160.667z"/>
<path style="fill:#eeeeee; stroke:none;" d="M409 160L392 215L393 215L405.558 176L409 160z"/>
<path style="fill:#9f9f9f; stroke:none;" d="M398.333 162.667L398.667 163.333L398.333 162.667M408 162L409 163L408 162z"/>
<path style="fill:#eeeeee; stroke:none;" d="M284 168L283 168C280.389 176.6 261.419 173 254 173L161 173L137 173C134.145 172.994 129.81 173.549 128.047 170.683C125.681 166.836 129.704 164.351 133.005 164.059C142.846 163.185 153.118 164 163 164L242 164C255.118 164 270.21 161.955 283 165C275.89 159.613 257.803 163 249 163L158 163C149.322 163 139.585 161.756 131.019 163.148C127.058 163.792 124.615 168.017 127.029 171.682C130.702 177.261 151.838 174 158 174L251 174C259.11 174 282.373 178.204 284 168M397 163L396 169L397 169L397 163z"/>
<path style="fill:#5c5c5c; stroke:none;" d="M407.333 163.667L407.667 164.333L407.333 163.667z"/>
<path style="fill:#9f9f9f; stroke:none;" d="M128 164L128 173L129 173L128 164z"/>
<path style="fill:#5c5c5c; stroke:none;" d="M129 164L129 165L281 165C269.068 159.993 247.991 164 235 164L129 164z"/>
<path style="fill:#9f9f9f; stroke:none;" d="M281 164L281 173L282 173L281 164z"/>
<path style="fill:#5c5c5c; stroke:none;" d="M398 164L399 165L398 164z"/>
<path style="fill:#2d2d2d; stroke:none;" d="M128 165L128 172L282 172L282 165L128 165z"/>
<path style="fill:#9f9f9f; stroke:none;" d="M397 165L398 166L397 165M407 165L408 166L407 165z"/>
<path style="fill:#eeeeee; stroke:none;" d="M283 166L284 167L283 166z"/>
<path style="fill:#5c5c5c; stroke:none;" d="M397.333 166.667L397.667 167.333L397.333 166.667M406 166L407 167L406 166z"/>
<path style="fill:#9f9f9f; stroke:none;" d="M406.333 167.667L406.667 168.333L406.333 167.667M396 169L397 170L396 169z"/>
<path style="fill:#5c5c5c; stroke:none;" d="M405.333 169.667L405.667 170.333L405.333 169.667z"/>
<path style="fill:#eeeeee; stroke:none;" d="M395 170L394 175L395 175L395 170z"/>
<path style="fill:#5c5c5c; stroke:none;" d="M396.333 170.667L396.667 171.333L396.333 170.667z"/>
<path style="fill:#9f9f9f; stroke:none;" d="M405 171L406 172L405 171z"/>
<path style="fill:#5c5c5c; stroke:none;" d="M129 172L129 173L281 173C269.068 167.993 247.991 172 235 172L129 172z"/>
<path style="fill:#9f9f9f; stroke:none;" d="M395.333 172.667L395.667 173.333L395.333 172.667z"/>
<path style="fill:#5c5c5c; stroke:none;" d="M404 172L405 173L404 172z"/>
<path style="fill:#9f9f9f; stroke:none;" d="M404.333 173.667L404.667 174.333L404.333 173.667z"/>
<path style="fill:#5c5c5c; stroke:none;" d="M395 174L396 175L395 174z"/>
<path style="fill:#9f9f9f; stroke:none;" d="M394.333 175.667L394.667 176.333L394.333 175.667z"/>
<path style="fill:#5c5c5c; stroke:none;" d="M403.333 175.667L403.667 176.333L403.333 175.667z"/>
<path style="fill:#eeeeee; stroke:none;" d="M393.333 176.667L393.667 177.333L393.333 176.667z"/>
<path style="fill:#5c5c5c; stroke:none;" d="M394 177L395 178L394 177z"/>
<path style="fill:#9f9f9f; stroke:none;" d="M403.333 177.667L403.667 178.333L403.333 177.667M393.333 178.667L393.667 179.333L393.333 178.667z"/>
<path style="fill:#eeeeee; stroke:none;" d="M392.333 179.667L392.667 180.333L392.333 179.667z"/>
<path style="fill:#5c5c5c; stroke:none;" d="M402.333 179.667L402.667 180.333L402.333 179.667M393 180L394 181L393 180z"/>
<path style="fill:#9f9f9f; stroke:none;" d="M392.333 181.667L392.667 182.333L392.333 181.667M402 181L403 182L402 181z"/>
<path style="fill:#eeeeee; stroke:none;" d="M391 182L390 188L391 188L391 182z"/>
<path style="fill:#5c5c5c; stroke:none;" d="M401.333 182.667L401.667 183.333L401.333 182.667M392 183L393 184L392 183z"/>
<path style="fill:#9f9f9f; stroke:none;" d="M391 184L392 185L391 184M401 184L402 185L401 184z"/>
<path style="fill:#5c5c5c; stroke:none;" d="M391.333 185.667L391.667 186.333L391.333 185.667M400.333 185.667L400.667 186.333L400.333 185.667z"/>
<path style="fill:#9f9f9f; stroke:none;" d="M400 187L401 188L400 187M390 188L391 189L390 188z"/>
<path style="fill:#5c5c5c; stroke:none;" d="M399.333 188.667L399.667 189.333L399.333 188.667M390.333 189.667L390.667 190.333L390.333 189.667z"/>
<path style="fill:#eeeeee; stroke:none;" d="M303 190L303 231L304 231C304 219.304 307.511 200.75 303 190M389 190L386 200L387 200L389 190z"/>
<path style="fill:#9f9f9f; stroke:none;" d="M399 190L400 191L399 190M389.333 191.667L389.667 192.333L389.333 191.667z"/>
<path style="fill:#5c5c5c; stroke:none;" d="M398 191L399 192L398 191z"/>
<path style="fill:#9f9f9f; stroke:none;" d="M398.333 192.667L398.667 193.333L398.333 192.667z"/>
<path style="fill:#5c5c5c; stroke:none;" d="M389 193L390 194L389 193M397 194L398 195L397 194z"/>
<path style="fill:#9f9f9f; stroke:none;" d="M388 195L389 196L388 195M397.333 195.667L397.667 196.333L397.333 195.667z"/>
<path style="fill:#5c5c5c; stroke:none;" d="M388 196L389 197L388 196z"/>
<path style="fill:#9f9f9f; stroke:none;" d="M387.333 197.667L387.667 198.333L387.333 197.667z"/>
<path style="fill:#5c5c5c; stroke:none;" d="M396.333 197.667L396.667 198.333L396.333 197.667M387 199L388 200L387 199z"/>
<path style="fill:#9f9f9f; stroke:none;" d="M396.333 199.667L396.667 200.333L396.333 199.667M386.333 200.667L386.667 201.333L386.333 200.667z"/>
<path style="fill:#eeeeee; stroke:none;" d="M385 201L381 216L382 216L385 201z"/>
<path style="fill:#5c5c5c; stroke:none;" d="M395.333 201.667L395.667 202.333L395.333 201.667M386 202L387 203L386 202z"/>
<path style="fill:#9f9f9f; stroke:none;" d="M385 203L386 204L385 203M395 203L396 204L395 203z"/>
<path style="fill:#5c5c5c; stroke:none;" d="M385.333 204.667L385.667 205.333L385.333 204.667M394 204L395 205L394 204z"/>
<path style="fill:#eeeeee; stroke:none;" d="M129 216C122.76 200.953 151.1 206 160 206L255 206C264.174 206 288.418 201.618 280 217C283.64 214.634 286.106 208.009 280.772 205.603C274.928 202.968 264.356 205 258 205L159 205C150.19 205 138.559 202.983 130.059 205.318C124.822 206.756 125.281 213.373 129 216z"/>
<path style="fill:#9f9f9f; stroke:none;" d="M394.333 205.667L394.667 206.333L394.333 205.667M128 206L128 207L282 207C270.068 201.993 248.991 206 236 206L128 206z"/>
<path style="fill:#5c5c5c; stroke:none;" d="M128 207L129 208L128 207z"/>
<path style="fill:#2d2d2d; stroke:none;" d="M128 215L186 215L226 215L271 215C273.997 215 285.932 215.044 280.968 208.603C277.402 203.975 257.58 207 252 207L166 207C155.79 207 128.159 201.618 128 215z"/>
<path style="fill:#5c5c5c; stroke:none;" d="M281 207L282 208L281 207z"/>
<path style="fill:#9f9f9f; stroke:none;" d="M384.333 207.667L384.667 208.333L384.333 207.667z"/>
<path style="fill:#5c5c5c; stroke:none;" d="M393.333 207.667L393.667 208.333L393.333 207.667z"/>
<path style="fill:#9f9f9f; stroke:none;" d="M127 208L127 214L128 214L127 208M282 208L282 214L283 214L282 208z"/>
<path style="fill:#5c5c5c; stroke:none;" d="M384 209L385 210L384 209z"/>
<path style="fill:#9f9f9f; stroke:none;" d="M393 209L394 210L393 209z"/>
<path style="fill:#5c5c5c; stroke:none;" d="M392 210L393 211L392 210z"/>
<path style="fill:#9f9f9f; stroke:none;" d="M383 211L384 212L383 211M392.333 211.667L392.667 212.333L392.333 211.667z"/>
<path style="fill:#5c5c5c; stroke:none;" d="M383.333 212.667L383.667 213.333L383.333 212.667M391.333 213.667L391.667 214.333L391.333 213.667M281 214L282 215L281 214z"/>
<path style="fill:#9f9f9f; stroke:none;" d="M382 214L383 215L382 214M129 215L129 216L281 216C269.068 210.993 247.991 215 235 215L129 215z"/>
<path style="fill:#5c5c5c; stroke:none;" d="M382 215L383 216L382 215z"/>
<path style="fill:#9f9f9f; stroke:none;" d="M391 215L392 216L391 215M381.333 216.667L381.667 217.333L381.333 216.667z"/>
<path style="fill:#5c5c5c; stroke:none;" d="M390.333 216.667L390.667 217.333L390.333 216.667z"/>
<path style="fill:#eeeeee; stroke:none;" d="M391 216L391 219L392 219L393 216L391 216M380.333 217.667L380.667 218.333L380.333 217.667z"/>
<path style="fill:#5c5c5c; stroke:none;" d="M381 218L382 219L381 218z"/>
<path style="fill:#9f9f9f; stroke:none;" d="M390.333 218.667L390.667 219.333L390.333 218.667M380.333 219.667L380.667 220.333L380.333 219.667z"/>
<path style="fill:#eeeeee; stroke:none;" d="M379 220L378 226L379 226L379 220z"/>
<path style="fill:#5c5c5c; stroke:none;" d="M389.333 220.667L389.667 221.333L389.333 220.667z"/>
<path style="fill:#eeeeee; stroke:none;" d="M390 220L385 237L386 237L390 220z"/>
<path style="fill:#5c5c5c; stroke:none;" d="M380 221L381 222L380 221z"/>
<path style="fill:#9f9f9f; stroke:none;" d="M379.333 222.667L379.667 223.333L379.333 222.667M389 222L390 223L389 222z"/>
<path style="fill:#5c5c5c; stroke:none;" d="M388.333 223.667L388.667 224.333L388.333 223.667M379 224L380 225L379 224z"/>
<path style="fill:#9f9f9f; stroke:none;" d="M388 225L389 226L388 225M378.333 226.667L378.667 227.333L378.333 226.667z"/>
<path style="fill:#5c5c5c; stroke:none;" d="M387.333 226.667L387.667 227.333L387.333 226.667z"/>
<path style="fill:#eeeeee; stroke:none;" d="M377 227L372 244L373 244L377 227M295 228L295 229L299 230L299 229L295 228z"/>
<path style="fill:#5c5c5c; stroke:none;" d="M378 228L379 229L378 228z"/>
<path style="fill:#9f9f9f; stroke:none;" d="M387 228L388 229L387 228z"/>
<path style="fill:#eeeeee; stroke:none;" d="M288 229L289 230L288 229z"/>
<path style="fill:#9f9f9f; stroke:none;" d="M377.333 229.667L377.667 230.333L377.333 229.667z"/>
<path style="fill:#5c5c5c; stroke:none;" d="M386 229L387 230L386 229z"/>
<path style="fill:#eeeeee; stroke:none;" d="M290 231L290 232L297 233C295.028 230.215 293.218 230.213 290 231z"/>
<path style="fill:#9f9f9f; stroke:none;" d="M386.333 230.667L386.667 231.333L386.333 230.667z"/>
<path style="fill:#5c5c5c; stroke:none;" d="M377 231L378 232L377 231M385.333 232.667L385.667 233.333L385.333 232.667z"/>
<path style="fill:#9f9f9f; stroke:none;" d="M376 233L377 234L376 233z"/>
<path style="fill:#5c5c5c; stroke:none;" d="M376 234L377 235L376 234z"/>
<path style="fill:#9f9f9f; stroke:none;" d="M385 234L386 235L385 234z"/>
<path style="fill:#eeeeee; stroke:none;" d="M303 235L303 238L304 238L303 235z"/>
<path style="fill:#9f9f9f; stroke:none;" d="M375.333 235.667L375.667 236.333L375.333 235.667z"/>
<path style="fill:#5c5c5c; stroke:none;" d="M384.333 235.667L384.667 236.333L384.333 235.667M375 237L376 238L375 237z"/>
<path style="fill:#9f9f9f; stroke:none;" d="M384.333 237.667L384.667 238.333L384.333 237.667z"/>
<path style="fill:#eeeeee; stroke:none;" d="M385 238L374 272L375 272C378.233 263.62 386.83 246.718 385 238M303 239L304 240L303 239z"/>
<path style="fill:#9f9f9f; stroke:none;" d="M374 239L375 240L374 239z"/>
<path style="fill:#5c5c5c; stroke:none;" d="M374 240L375 241L374 240M383 240L384 241L383 240z"/>
<path style="fill:#9f9f9f; stroke:none;" d="M373.333 241.667L373.667 242.333L373.333 241.667M383 241L384 242L383 241z"/>
<path style="fill:#5c5c5c; stroke:none;" d="M382.333 242.667L382.667 243.333L382.333 242.667M373 243L374 244L373 243z"/>
<path style="fill:#9f9f9f; stroke:none;" d="M372.333 244.667L372.667 245.333L372.333 244.667M382 244L383 245L382 244z"/>
<path style="fill:#eeeeee; stroke:none;" d="M303 245L303 248L304 248L303 245z"/>
<path style="fill:#9f9f9f; stroke:none;" d="M313.333 245.667L313.667 246.333L313.333 245.667z"/>
<path style="fill:#eeeeee; stroke:none;" d="M371 245L370 252L371 252L371 245z"/>
<path style="fill:#5c5c5c; stroke:none;" d="M381.333 245.667L381.667 246.333L381.333 245.667M305 246L305 247L311 248L305 246M311.667 246.333L312.333 246.667L311.667 246.333M372 246L373 247L372 246z"/>
<path style="fill:#eeeeee; stroke:none;" d="M270 247L270 248C273.671 248 288.046 249.245 281.253 256.397C276.674 261.217 257.397 258 251 258L162 258C155.132 258 133.62 261.526 128.747 256.397C125.789 253.283 128.567 249.223 132.019 248.318C139.484 246.361 149.29 248 157 248C150.93 245.453 136.471 245.557 130.059 247.318C125.718 248.51 124.434 255.381 128.318 257.972C134.942 262.393 153.116 259 161 259L247 259L272 259C274.864 259 279.861 259.913 282.258 257.972C292.153 249.961 274.268 247 270 247M158 247L158 248L166 248L158 247M167.667 247.333L168.333 247.667L167.667 247.333M170 247L170 248L227 248L209 247L170 247M228 247L228 248L231 248L228 247M232 247L232 248L240 248L232 247M241 247L241 248L248 248L241 247M249 247L249 248L252 248L249 247M254 247L255 248L254 247M259 247L259 248L269 248L259 247z"/>
<path style="fill:#5c5c5c; stroke:none;" d="M313.333 247.667L313.667 248.333L313.333 247.667z"/>
<path style="fill:#9f9f9f; stroke:none;" d="M381 247L382 248L381 247M129 248L129 249L281 249C269.068 243.993 247.991 248 235 248L129 248M371 248L372 249L371 248z"/>
<path style="fill:#5c5c5c; stroke:none;" d="M380.333 248.667L380.667 249.333L380.333 248.667M128 249L129 250L128 249z"/>
<path style="fill:#2d2d2d; stroke:none;" d="M128 257L157 257L158 249C148.486 249 128.151 244.256 128 257z"/>
<path style="fill:#5c5c5c; stroke:none;" d="M158 249L157 257L129 257L129 258L161 258L167 250L167 249C162.161 249.756 159.911 252.074 161 257C158.398 254.259 158.831 252.499 160 249L158 249z"/>
<path style="fill:#2d2d2d; stroke:none;" d="M161 257L163 249C158.773 250.335 156.79 254.236 161 257M162 257C167.9 256.806 168.933 254.652 169 249C164.28 250.247 162.376 252.072 162 257z"/>
<path style="fill:#5c5c5c; stroke:none;" d="M169 249C168.846 253.725 167.923 256.215 163 257L163 258L191.687 257.397L197 251L195 258C216.931 258 238.999 258.546 260.91 257.92C266.728 257.753 278.509 260.44 282 255L281 255L277 257L277 250L282 251L276 249L276 257L274 249L272 257L264 257L269 250L269 249C263.687 249.612 263.06 251.999 263 257L251 257L249 249L250 257L248 257C247.716 248.291 241.105 248.163 241 257L239 257C238.721 248.447 232.279 248.447 232 257L230 257L231 249L229 257L224 257L223 249L222 249L223 257L221 257C220.333 248.179 210.82 247.723 212 257C209.398 254.259 209.831 252.499 211 249L208 257L198 257L204 249L203 249L196 255L199 249C194.333 249.965 192.099 252.154 193 257L192 249L189 257L182 257L186 250L186 249C181.194 249.784 180.253 252.395 180 257L178 257L179 249L178 249L177 257L173 257L173 249L172 249L172 257L170 257L169 249z"/>
<path style="fill:#2d2d2d; stroke:none;" d="M170 249L170 257L172 257L172 249L170 249M173 249L173 257L177 257L178 249L173 249M179 249L178 257L180 257L182 249L179 249M182 257L189 257L190 249C184.465 249.573 182.187 251.364 182 257M193 257L196 250C191.082 248.395 188.963 254.303 193 257M199 249L196 255L203 249L199 249M204 249L198 257L208 257L209 249L204 249M212 257L214 249C209.773 250.335 207.79 254.236 212 257M218 249L221 257L223 257C222.895 252.69 222.657 249.809 218 249M223 249L224 257L229 257L229 249L223 249M230 257L232 257L234 249C229.954 250.343 230.047 253.065 230 257M237 249L239 257L241 257L243 250L237 249M246 249L248 257L250 257C249.953 253.065 250.046 250.343 246 249M251 249L251 257L263 257L265 250L265 249L261 249L261 255L260 255L260 249L251 249z"/>
<path style="fill:#5c5c5c; stroke:none;" d="M260 249L260 255L261 255L260 249z"/>
<path style="fill:#2d2d2d; stroke:none;" d="M264 257L272 257L272 249C266.83 249.824 264.408 251.652 264 257M274 249C272.995 252.527 272.771 254.906 276 257L276 249L274 249z"/>
<path style="fill:#eeeeee; stroke:none;" d="M303 249L303 263L304 263L303 249z"/>
<path style="fill:#5c5c5c; stroke:none;" d="M305 249L305 250L309 263L313 262L313 368L314 368L314 290L313 250L312 250L311 262C309.515 256.989 310.875 250.904 305 249z"/>
<path style="fill:#9f9f9f; stroke:none;" d="M313 249L313 252L314 252L313 249z"/>
<path style="fill:#5c5c5c; stroke:none;" d="M371.333 249.667L371.667 250.333L371.333 249.667z"/>
<path style="fill:#9f9f9f; stroke:none;" d="M127 250L127 256L128 256L127 250z"/>
<path style="fill:#2d2d2d; stroke:none;" d="M213 257L220 257C219.196 249.956 213.558 249.788 213 257M235 250L233 257L238 257L235 250M244 250L242 257L247 257L244 250M277 250L277 257C282.675 256.015 282.464 251.193 277 250z"/>
<path style="fill:#9f9f9f; stroke:none;" d="M282 250L282 256L283 256L282 250M380 250L381 251L380 250z"/>
<path style="fill:#2d2d2d; stroke:none;" d="M195 251L196 257L197 251L195 251z"/>
<path style="fill:#5c5c5c; stroke:none;" d="M379.333 251.667L379.667 252.333L379.333 251.667z"/>
<path style="fill:#9f9f9f; stroke:none;" d="M370 252L371 253L370 252z"/>
<path style="fill:#eeeeee; stroke:none;" d="M369 253L370 254L369 253z"/>
<path style="fill:#5c5c5c; stroke:none;" d="M370 253L371 254L370 253z"/>
<path style="fill:#9f9f9f; stroke:none;" d="M379 253L380 254L379 253M369.333 254.667L369.667 255.333L369.333 254.667z"/>
<path style="fill:#5c5c5c; stroke:none;" d="M378.333 254.667L378.667 255.333L378.333 254.667z"/>
<path style="fill:#eeeeee; stroke:none;" d="M368 255L368 258L369 258L368 255z"/>
<path style="fill:#5c5c5c; stroke:none;" d="M369 256L370 257L369 256z"/>
<path style="fill:#9f9f9f; stroke:none;" d="M378.333 256.667L378.667 257.333L378.333 256.667M128 257L129 258L128 257M158 257L159 258L158 257M161.667 257.333L162.333 257.667L161.667 257.333M168 257L169 258L168 257M172 257L173 258L172 257M177 257L178 258L177 257M193.667 257.333L194.333 257.667L193.667 257.333M212 257L213 258L212 257M220 257L221 258L220 257M223 257L224 258L223 257M232 257L233 258L232 257M238 257L239 258L238 257M241 257L242 258L241 257M247 257L248 258L247 257M250 257L251 258L250 257M263 257L264 258L263 257M276 257L277 258L276 257M281 257L282 258L281 257M368 258L369 259L368 258z"/>
<path style="fill:#eeeeee; stroke:none;" d="M367 259L368 260L367 259z"/>
<path style="fill:#5c5c5c; stroke:none;" d="M368 259L369 260L368 259M377 259L378 260L377 259z"/>
<path style="fill:#9f9f9f; stroke:none;" d="M367.333 260.667L367.667 261.333L367.333 260.667M377 260L378 261L377 260z"/>
<path style="fill:#eeeeee; stroke:none;" d="M366.333 261.667L366.667 262.333L366.333 261.667z"/>
<path style="fill:#5c5c5c; stroke:none;" d="M376.333 261.667L376.667 262.333L376.333 261.667M367 262L368 263L367 262z"/>
<path style="fill:#9f9f9f; stroke:none;" d="M366.333 263.667L366.667 264.333L366.333 263.667M376 263L377 264L376 263z"/>
<path style="fill:#eeeeee; stroke:none;" d="M365 264L365 267L366 267L365 264z"/>
<path style="fill:#5c5c5c; stroke:none;" d="M375.333 264.667L375.667 265.333L375.333 264.667M366 265L367 266L366 265z"/>
<path style="fill:#9f9f9f; stroke:none;" d="M375 266L376 267L375 266M365 267L366 268L365 267z"/>
<path style="fill:#5c5c5c; stroke:none;" d="M374.333 267.667L374.667 268.333L374.333 267.667z"/>
<path style="fill:#eeeeee; stroke:none;" d="M364 268L361 279L362 279L364 268z"/>
<path style="fill:#5c5c5c; stroke:none;" d="M365.333 268.667L365.667 269.333L365.333 268.667z"/>
<path style="fill:#9f9f9f; stroke:none;" d="M374 269L375 270L374 269z"/>
<path style="fill:#5c5c5c; stroke:none;" d="M373.333 270.667L373.667 271.333L373.333 270.667z"/>
<path style="fill:#9f9f9f; stroke:none;" d="M364 271L365 272L364 271z"/>
<path style="fill:#5c5c5c; stroke:none;" d="M364 272L365 273L364 272z"/>
<path style="fill:#9f9f9f; stroke:none;" d="M373 272L374 273L373 272z"/>
<path style="fill:#5c5c5c; stroke:none;" d="M372 273L373 274L372 273z"/>
<path style="fill:#eeeeee; stroke:none;" d="M373 273L372 279L373 279L375 273L373 273z"/>
<path style="fill:#9f9f9f; stroke:none;" d="M363 274L364 275L363 274M372.333 274.667L372.667 275.333L372.333 274.667z"/>
<path style="fill:#5c5c5c; stroke:none;" d="M363.333 275.667L363.667 276.333L363.333 275.667M371.333 276.667L371.667 277.333L371.333 276.667z"/>
<path style="fill:#9f9f9f; stroke:none;" d="M362 277L363 278L362 277z"/>
<path style="fill:#5c5c5c; stroke:none;" d="M362 278L363 279L362 278z"/>
<path style="fill:#9f9f9f; stroke:none;" d="M371.333 278.667L371.667 279.333L371.333 278.667M361.333 279.667L361.667 280.333L361.333 279.667z"/>
<path style="fill:#eeeeee; stroke:none;" d="M360 280L349 317L350 317C352.99 307.808 362.75 289.297 360 280z"/>
<path style="fill:#5c5c5c; stroke:none;" d="M370.333 280.667L370.667 281.333L370.333 280.667z"/>
<path style="fill:#eeeeee; stroke:none;" d="M371 280L362 310L363 310L373 280L371 280z"/>
<path style="fill:#5c5c5c; stroke:none;" d="M361 281L362 282L361 281z"/>
<path style="fill:#9f9f9f; stroke:none;" d="M370 282L371 283L370 282M360 283L361 284L360 283z"/>
<path style="fill:#5c5c5c; stroke:none;" d="M360 284L361 285L360 284M369 284L370 285L369 284z"/>
<path style="fill:#9f9f9f; stroke:none;" d="M369 285L370 286L369 285M359.333 286.667L359.667 287.333L359.333 286.667z"/>
<path style="fill:#5c5c5c; stroke:none;" d="M368.333 286.667L368.667 287.333L368.333 286.667M359 288L360 289L359 288z"/>
<path style="fill:#9f9f9f; stroke:none;" d="M368 288L369 289L368 288z"/>
<path style="fill:#5c5c5c; stroke:none;" d="M367.333 289.667L367.667 290.333L367.333 289.667z"/>
<path style="fill:#eeeeee; stroke:none;" d="M283 300L283 299C270.21 302.045 255.118 300 242 300L163 300C153.672 300 144.326 300.171 135 299.995C131.811 299.935 126.982 299.466 127.466 295.039C127.926 290.84 132.865 291.022 136 291.001C145.332 290.937 154.667 291 164 291L242 291C255.118 291 270.21 288.955 283 292C276.038 286.726 258.607 290 250 290L162 290L135 290C131.448 290.007 126.737 289.463 126.167 294.058C124.771 305.329 154.699 301 162 301L243 301C255.419 301 271.083 303.523 283 300z"/>
<path style="fill:#9f9f9f; stroke:none;" d="M358 290L359 291L358 290z"/>
<path style="fill:#5c5c5c; stroke:none;" d="M128 291L129 292L128 291z"/>
<path style="fill:#2d2d2d; stroke:none;" d="M128 299L282 299C281.85 286.363 262.412 291 253 291L160 291C150.317 291 128.153 286.063 128 299z"/>
<path style="fill:#5c5c5c; stroke:none;" d="M281 291L282 292L281 291M358 291L359 292L358 291z"/>
<path style="fill:#9f9f9f; stroke:none;" d="M367 291L368 292L367 291M127 292L127 299L128 299L127 292M282 292L282 299L283 299L282 292z"/>
<path style="fill:#5c5c5c; stroke:none;" d="M366 292L367 293L366 292z"/>
<path style="fill:#eeeeee; stroke:none;" d="M283 293L283 297L284 297L283 293z"/>
<path style="fill:#9f9f9f; stroke:none;" d="M357 293L358 294L357 293M366.333 293.667L366.667 294.333L366.333 293.667z"/>
<path style="fill:#eeeeee; stroke:none;" d="M303 294L303 299L304 299L303 294z"/>
<path style="fill:#5c5c5c; stroke:none;" d="M357 294L358 295L357 294z"/>
<path style="fill:#9f9f9f; stroke:none;" d="M356 296L357 297L356 296z"/>
<path style="fill:#5c5c5c; stroke:none;" d="M365 296L366 297L365 296M356 297L357 298L356 297z"/>
<path style="fill:#9f9f9f; stroke:none;" d="M365.333 297.667L365.667 298.333L365.333 297.667M128 299L129 300L128 299z"/>
<path style="fill:#5c5c5c; stroke:none;" d="M129 299L129 300L281 300C269.068 294.993 247.991 299 235 299L129 299z"/>
<path style="fill:#9f9f9f; stroke:none;" d="M281 299L282 300L281 299M355 299L356 300L355 299z"/>
<path style="fill:#5c5c5c; stroke:none;" d="M364.333 299.667L364.667 300.333L364.333 299.667M355 300L356 301L355 300z"/>
<path style="fill:#9f9f9f; stroke:none;" d="M364 301L365 302L364 301M354 302L355 303L354 302z"/>
<path style="fill:#5c5c5c; stroke:none;" d="M363.333 302.667L363.667 303.333L363.333 302.667M354 303L355 304L354 303z"/>
<path style="fill:#9f9f9f; stroke:none;" d="M363 304L364 305L363 304M353.333 305.667L353.667 306.333L353.333 305.667z"/>
<path style="fill:#5c5c5c; stroke:none;" d="M362.333 305.667L362.667 306.333L362.333 305.667M353 307L354 308L353 307z"/>
<path style="fill:#9f9f9f; stroke:none;" d="M362 307L363 308L362 307z"/>
<path style="fill:#5c5c5c; stroke:none;" d="M361.333 308.667L361.667 309.333L361.333 308.667z"/>
<path style="fill:#9f9f9f; stroke:none;" d="M352 309L353 310L352 309z"/>
<path style="fill:#5c5c5c; stroke:none;" d="M352 310L353 311L352 310z"/>
<path style="fill:#9f9f9f; stroke:none;" d="M361 310L362 311L361 310z"/>
<path style="fill:#5c5c5c; stroke:none;" d="M360.333 311.667L360.667 312.333L360.333 311.667z"/>
<path style="fill:#eeeeee; stroke:none;" d="M361 311L360 317L361 317L361 311z"/>
<path style="fill:#9f9f9f; stroke:none;" d="M351 312L352 313L351 312z"/>
<path style="fill:#5c5c5c; stroke:none;" d="M351.333 313.667L351.667 314.333L351.333 313.667z"/>
<path style="fill:#9f9f9f; stroke:none;" d="M360 313L361 314L360 313M350 315L351 316L350 315z"/>
<path style="fill:#5c5c5c; stroke:none;" d="M359 315L360 316L359 315M350 316L351 317L350 316z"/>
<path style="fill:#9f9f9f; stroke:none;" d="M359.333 316.667L359.667 317.333L359.333 316.667M349.333 317.667L349.667 318.333L349.333 317.667z"/>
<path style="fill:#eeeeee; stroke:none;" d="M348 318L346 327L347 327L348 318z"/>
<path style="fill:#5c5c5c; stroke:none;" d="M358.333 318.667L358.667 319.333L358.333 318.667z"/>
<path style="fill:#eeeeee; stroke:none;" d="M359 318L347 357L348 357C351.433 348.087 362.218 327.07 359 318z"/>
<path style="fill:#5c5c5c; stroke:none;" d="M349.333 319.667L349.667 320.333L349.333 319.667z"/>
<path style="fill:#9f9f9f; stroke:none;" d="M358 320L359 321L358 320M348 321L349 322L348 321z"/>
<path style="fill:#5c5c5c; stroke:none;" d="M357.333 321.667L357.667 322.333L357.333 321.667M348 322L349 323L348 322z"/>
<path style="fill:#9f9f9f; stroke:none;" d="M347.333 323.667L347.667 324.333L347.333 323.667M357 323L358 324L357 323z"/>
<path style="fill:#5c5c5c; stroke:none;" d="M356.333 324.667L356.667 325.333L356.333 324.667M347 325L348 326L347 325z"/>
<path style="fill:#9f9f9f; stroke:none;" d="M356 326L357 327L356 326M346.333 327.667L346.667 328.333L346.333 327.667z"/>
<path style="fill:#eeeeee; stroke:none;" d="M345 328L328 384L329 384L341.205 344L345 328z"/>
<path style="fill:#5c5c5c; stroke:none;" d="M355 328L356 329L355 328M346 329L347 330L346 329z"/>
<path style="fill:#9f9f9f; stroke:none;" d="M355 329L356 330L355 329z"/>
<path style="fill:#eeeeee; stroke:none;" d="M303 330L303 366L304 366C304 355.613 307.011 339.56 303 330z"/>
<path style="fill:#5c5c5c; stroke:none;" d="M354.333 330.667L354.667 331.333L354.333 330.667z"/>
<path style="fill:#9f9f9f; stroke:none;" d="M345 331L346 332L345 331z"/>
<path style="fill:#eeeeee; stroke:none;" d="M283 342L283 341C270.21 344.045 255.118 342 242 342L163 342C153.362 342 143.629 342.4 134.001 341.981C130.709 341.837 126.257 340.466 127.801 336.144C129.121 332.447 133.88 333.006 137 333L164 333L281 333C271.449 328.992 255.372 332 245 332L161 332C153.757 332 125.832 327.819 126.103 337.961C126.241 343.148 130.962 342.978 135 342.999C143.999 343.047 153 343 162 343L243 343C255.419 343 271.083 345.523 283 342z"/>
<path style="fill:#5c5c5c; stroke:none;" d="M345.333 332.667L345.667 333.333L345.333 332.667z"/>
<path style="fill:#9f9f9f; stroke:none;" d="M354 332L355 333L354 332M128 333L128 334L282 334C270.068 328.993 248.991 333 236 333L128 333z"/>
<path style="fill:#eeeeee; stroke:none;" d="M282.333 333.667L282.667 334.333L282.333 333.667z"/>
<path style="fill:#2d2d2d; stroke:none;" d="M128 334L128 341L282 341C281.611 329.155 255.069 334 246 334L128 334z"/>
<path style="fill:#5c5c5c; stroke:none;" d="M281 334L282 335L281 334z"/>
<path style="fill:#9f9f9f; stroke:none;" d="M344 334L345 335L344 334z"/>
<path style="fill:#5c5c5c; stroke:none;" d="M353 334L354 335L353 334z"/>
<path style="fill:#9f9f9f; stroke:none;" d="M127 335L127 341L128 341L127 335M282 335L282 341L283 341L282 335z"/>
<path style="fill:#5c5c5c; stroke:none;" d="M344 335L345 336L344 335z"/>
<path style="fill:#9f9f9f; stroke:none;" d="M353.333 335.667L353.667 336.333L353.333 335.667M343 337L344 338L343 337z"/>
<path style="fill:#5c5c5c; stroke:none;" d="M343 338L344 339L343 338M352 338L353 339L352 338z"/>
<path style="fill:#eeeeee; stroke:none;" d="M283 339L284 340L283 339z"/>
<path style="fill:#9f9f9f; stroke:none;" d="M352 339L353 340L352 339M342 340L343 341L342 340z"/>
<path style="fill:#5c5c5c; stroke:none;" d="M128 341L128 342L281 342C269.068 336.993 247.991 341 235 341L128 341z"/>
<path style="fill:#9f9f9f; stroke:none;" d="M281 341L282 342L281 341z"/>
<path style="fill:#5c5c5c; stroke:none;" d="M342 341L343 342L342 341M351 341L352 342L351 341z"/>
<path style="fill:#9f9f9f; stroke:none;" d="M341.333 342.667L341.667 343.333L341.333 342.667M351 342L352 343L351 342z"/>
<path style="fill:#5c5c5c; stroke:none;" d="M350.333 343.667L350.667 344.333L350.333 343.667M341 344L342 345L341 344z"/>
<path style="fill:#9f9f9f; stroke:none;" d="M350 345L351 346L350 345M340 346L341 347L340 346z"/>
<path style="fill:#5c5c5c; stroke:none;" d="M349 346L350 347L349 346M340.333 347.667L340.667 348.333L340.333 347.667z"/>
<path style="fill:#9f9f9f; stroke:none;" d="M349.333 347.667L349.667 348.333L349.333 347.667z"/>
<path style="fill:#5c5c5c; stroke:none;" d="M348.333 349.667L348.667 350.333L348.333 349.667z"/>
<path style="fill:#9f9f9f; stroke:none;" d="M339 350L340 351L339 350z"/>
<path style="fill:#5c5c5c; stroke:none;" d="M339.333 351.667L339.667 352.333L339.333 351.667z"/>
<path style="fill:#9f9f9f; stroke:none;" d="M348 351L349 352L348 351z"/>
<path style="fill:#5c5c5c; stroke:none;" d="M347.333 352.667L347.667 353.333L347.333 352.667z"/>
<path style="fill:#9f9f9f; stroke:none;" d="M338 353L339 354L338 353z"/>
<path style="fill:#5c5c5c; stroke:none;" d="M338 354L339 355L338 354z"/>
<path style="fill:#9f9f9f; stroke:none;" d="M347 354L348 355L347 354z"/>
<path style="fill:#5c5c5c; stroke:none;" d="M346.333 355.667L346.667 356.333L346.333 355.667z"/>
<path style="fill:#9f9f9f; stroke:none;" d="M337 356L338 357L337 356z"/>
<path style="fill:#5c5c5c; stroke:none;" d="M337.333 357.667L337.667 358.333L337.333 357.667z"/>
<path style="fill:#9f9f9f; stroke:none;" d="M346.333 357.667L346.667 358.333L346.333 357.667M336 359L337 360L336 359z"/>
<path style="fill:#5c5c5c; stroke:none;" d="M345.333 359.667L345.667 360.333L345.333 359.667z"/>
<path style="fill:#eeeeee; stroke:none;" d="M346 359L342 373L343 373L346 359z"/>
<path style="fill:#5c5c5c; stroke:none;" d="M336 360L337 361L336 360z"/>
<path style="fill:#9f9f9f; stroke:none;" d="M335.333 361.667L335.667 362.333L335.333 361.667M345 361L346 362L345 361z"/>
<path style="fill:#5c5c5c; stroke:none;" d="M335 363L336 364L335 363M344 363L345 364L344 363z"/>
<path style="fill:#9f9f9f; stroke:none;" d="M344 364L345 365L344 364M334.333 365.667L334.667 366.333L334.333 365.667z"/>
<path style="fill:#5c5c5c; stroke:none;" d="M343.333 365.667L343.667 366.333L343.333 365.667z"/>
<path style="fill:#eeeeee; stroke:none;" d="M303 367C298.322 380.635 268.84 375 257 375L112 375L112 376L260 376C271.46 376 283.613 377.164 295 375.891C299.604 375.376 304.562 371.993 303 367z"/>
<path style="fill:#5c5c5c; stroke:none;" d="M334 367L335 368L334 367z"/>
<path style="fill:#9f9f9f; stroke:none;" d="M343 367L344 368L343 367M313 368L313 371L314 371L313 368z"/>
<path style="fill:#5c5c5c; stroke:none;" d="M342.333 368.667L342.667 369.333L342.333 368.667z"/>
<path style="fill:#9f9f9f; stroke:none;" d="M105 369L106 370L105 369z"/>
<path style="fill:#5c5c5c; stroke:none;" d="M304 369L305 370L304 369z"/>
<path style="fill:#9f9f9f; stroke:none;" d="M333 369L334 370L333 369M96.3333 370.667L96.6667 371.333L96.3333 370.667z"/>
<path style="fill:#5c5c5c; stroke:none;" d="M105 370L106 371L105 370z"/>
<path style="fill:#eeeeee; stroke:none;" d="M314 370C310.97 376.356 307.823 381.356 301 384L301 385C307.423 383.833 315.193 377.171 314 370z"/>
<path style="fill:#5c5c5c; stroke:none;" d="M333.333 370.667L333.667 371.333L333.333 370.667z"/>
<path style="fill:#9f9f9f; stroke:none;" d="M342 370L343 371L342 370M106 371L110 375L106 371M303 371L304 372L303 371z"/>
<path style="fill:#5c5c5c; stroke:none;" d="M312.333 371.667L312.667 372.333L312.333 371.667M341 371L342 372L341 371M106 372L107 373L106 372z"/>
<path style="fill:#9f9f9f; stroke:none;" d="M302 372L300 375L302 372M332 372L333 373L332 372M341.333 372.667L341.667 373.333L341.333 372.667z"/>
<path style="fill:#5c5c5c; stroke:none;" d="M97 373L98 374L97 373M107 373L108 374L107 373M302 373L303 374L302 373z"/>
<path style="fill:#9f9f9f; stroke:none;" d="M312 373L313 374L312 373z"/>
<path style="fill:#5c5c5c; stroke:none;" d="M332 373L333 374L332 373z"/>
<path style="fill:#9f9f9f; stroke:none;" d="M97 374L98 375L97 374z"/>
<path style="fill:#5c5c5c; stroke:none;" d="M108 374L109 375L108 374M301 374L302 375L301 374M311 374L312 375L311 374z"/>
<path style="fill:#eeeeee; stroke:none;" d="M341 374L335 395L336 395L343 374L341 374z"/>
<path style="fill:#5c5c5c; stroke:none;" d="M98 375L99 376L98 375M110 375L111 376L110 375z"/>
<path style="fill:#9f9f9f; stroke:none;" d="M111 375L112 376L111 375M298 375L299 376L298 375z"/>
<path style="fill:#5c5c5c; stroke:none;" d="M299 375L300 376L299 375z"/>
<path style="fill:#9f9f9f; stroke:none;" d="M311 375L312 376L311 375M331 375L332 376L331 375z"/>
<path style="fill:#5c5c5c; stroke:none;" d="M340 375L341 376L340 375z"/>
<path style="fill:#9f9f9f; stroke:none;" d="M98 376L99 377L98 376z"/>
<path style="fill:#5c5c5c; stroke:none;" d="M113 376L113 377L297 377L279 376L242 376L113 376M310 376L311 377L310 376M331.333 376.667L331.667 377.333L331.333 376.667z"/>
<path style="fill:#9f9f9f; stroke:none;" d="M340.333 376.667L340.667 377.333L340.333 376.667z"/>
<path style="fill:#5c5c5c; stroke:none;" d="M99 377L100 378L99 377z"/>
<path style="fill:#9f9f9f; stroke:none;" d="M310 377L311 378L310 377z"/>
<path style="fill:#5c5c5c; stroke:none;" d="M100 378L101 379L100 378z"/>
<path style="fill:#9f9f9f; stroke:none;" d="M309 378L310 379L309 378M330 378L331 379L330 378M101 379L102 380L101 379M308 379L309 380L308 379z"/>
<path style="fill:#5c5c5c; stroke:none;" d="M330 379L331 380L330 379M339 379L340 380L339 379z"/>
<path style="fill:#9f9f9f; stroke:none;" d="M102 380L103 381L102 380M307 380L308 381L307 380M339 380L340 381L339 380M103 381L104 382L103 381z"/>
<path style="fill:#5c5c5c; stroke:none;" d="M305 381L306 382L305 381z"/>
<path style="fill:#9f9f9f; stroke:none;" d="M306 381L307 382L306 381M329 381L330 382L329 381z"/>
<path style="fill:#5c5c5c; stroke:none;" d="M338.333 381.667L338.667 382.333L338.333 381.667z"/>
<path style="fill:#9f9f9f; stroke:none;" d="M104 382L105 383L104 382z"/>
<path style="fill:#5c5c5c; stroke:none;" d="M105 382L106 383L105 382M304 382L305 383L304 382M329.333 382.667L329.667 383.333L329.333 382.667z"/>
<path style="fill:#9f9f9f; stroke:none;" d="M106 383L107 384L106 383z"/>
<path style="fill:#5c5c5c; stroke:none;" d="M107 383L108 384L107 383M302 383L303 384L302 383z"/>
<path style="fill:#9f9f9f; stroke:none;" d="M303 383L304 384L303 383M338 383L339 384L338 383M109.667 384.333L110.333 384.667L109.667 384.333z"/>
<path style="fill:#5c5c5c; stroke:none;" d="M111 384L111 385L299 385L281 384L243 384L111 384z"/>
<path style="fill:#9f9f9f; stroke:none;" d="M299.667 384.333L300.333 384.667L299.667 384.333M328.333 384.667L328.667 385.333L328.333 384.667z"/>
<path style="fill:#eeeeee; stroke:none;" d="M112 385L112 386L298 386L280 385L243 385L112 385M327 385C324.106 395.2 321.564 416.6 309 418L309 419C319.646 418.417 329.896 394.795 327 385z"/>
<path style="fill:#5c5c5c; stroke:none;" d="M337 385L338 386L337 385M328 386L329 387L328 386z"/>
<path style="fill:#9f9f9f; stroke:none;" d="M337 386L338 387L337 386z"/>
<path style="fill:#5c5c5c; stroke:none;" d="M336.333 387.667L336.667 388.333L336.333 387.667z"/>
<path style="fill:#9f9f9f; stroke:none;" d="M327 388L328 389L327 388z"/>
<path style="fill:#5c5c5c; stroke:none;" d="M327.333 389.667L327.667 390.333L327.333 389.667z"/>
<path style="fill:#9f9f9f; stroke:none;" d="M336 389L337 390L336 389z"/>
<path style="fill:#eeeeee; stroke:none;" d="M189 390L189 391C200.197 396.962 216.437 402.3 229 404L229 403L189 390z"/>
<path style="fill:#9f9f9f; stroke:none;" d="M190 390L190 391L220 391L190 390z"/>
<path style="fill:#eeeeee; stroke:none;" d="M220 390L220 391L232 394L220 390z"/>
<path style="fill:#5c5c5c; stroke:none;" d="M335 390L336 391L335 390M193.667 391.333L194.333 391.667L193.667 391.333M221 391L222 392L221 391z"/>
<path style="fill:#9f9f9f; stroke:none;" d="M222 391L223 392L222 391M326 391L327 392L326 391M335.333 391.667L335.667 392.333L335.333 391.667M195 392L196 393L195 392z"/>
<path style="fill:#5c5c5c; stroke:none;" d="M196 392L197 393L196 392M224 392L225 393L224 392z"/>
<path style="fill:#9f9f9f; stroke:none;" d="M225.667 392.333L226.333 392.667L225.667 392.333z"/>
<path style="fill:#5c5c5c; stroke:none;" d="M326.333 392.667L326.667 393.333L326.333 392.667z"/>
<path style="fill:#9f9f9f; stroke:none;" d="M198 393L199 394L198 393z"/>
<path style="fill:#5c5c5c; stroke:none;" d="M199.667 393.333L200.333 393.667L199.667 393.333M227 393L228 394L227 393z"/>
<path style="fill:#9f9f9f; stroke:none;" d="M228 393L229 394L228 393M201.667 394.333L202.333 394.667L201.667 394.333z"/>
<path style="fill:#5c5c5c; stroke:none;" d="M203 394L204 395L203 394M230 394L231 395L230 394z"/>
<path style="fill:#9f9f9f; stroke:none;" d="M231.667 394.333L232.333 394.667L231.667 394.333z"/>
<path style="fill:#eeeeee; stroke:none;" d="M233 394L233 395L238 396L238 395L233 394z"/>
<path style="fill:#9f9f9f; stroke:none;" d="M325 394L326 395L325 394z"/>
<path style="fill:#5c5c5c; stroke:none;" d="M334 394L335 395L334 394z"/>
<path style="fill:#9f9f9f; stroke:none;" d="M204 395L205 396L204 395z"/>
<path style="fill:#5c5c5c; stroke:none;" d="M205.667 395.333L206.333 395.667L205.667 395.333M233 395L234 396L233 395z"/>
<path style="fill:#9f9f9f; stroke:none;" d="M234 395L235 396L234 395z"/>
<path style="fill:#5c5c5c; stroke:none;" d="M325 395L326 396L325 395z"/>
<path style="fill:#9f9f9f; stroke:none;" d="M334.333 395.667L334.667 396.333L334.333 395.667M207.667 396.333L208.333 396.667L207.667 396.333z"/>
<path style="fill:#5c5c5c; stroke:none;" d="M209 396L210 397L209 396M236.667 396.333L237.333 396.667L236.667 396.333z"/>
<path style="fill:#9f9f9f; stroke:none;" d="M238 396L239 397L238 396z"/>
<path style="fill:#eeeeee; stroke:none;" d="M239 396L239 397L242 397L239 396z"/>
<path style="fill:#9f9f9f; stroke:none;" d="M211.667 397.333L212.333 397.667L211.667 397.333z"/>
<path style="fill:#5c5c5c; stroke:none;" d="M213 397L214 398L213 397M240 397L241 398L240 397z"/>
<path style="fill:#9f9f9f; stroke:none;" d="M241.667 397.333L242.333 397.667L241.667 397.333z"/>
<path style="fill:#eeeeee; stroke:none;" d="M243.667 397.333L244.333 397.667L243.667 397.333z"/>
<path style="fill:#9f9f9f; stroke:none;" d="M324 397L325 398L324 397z"/>
<path style="fill:#eeeeee; stroke:none;" d="M334 397C332.897 401.766 331.138 406.322 329.72 411C321.395 438.453 297.124 423.424 278 419L278 420C292.299 424.829 314.664 437 326.606 421.985C329.207 418.713 329.894 414.821 331.309 411C332.894 406.718 335.592 401.489 334 397z"/>
<path style="fill:#9f9f9f; stroke:none;" d="M214 398L215 399L214 398z"/>
<path style="fill:#5c5c5c; stroke:none;" d="M215.667 398.333L216.333 398.667L215.667 398.333M243 398L244 399L243 398z"/>
<path style="fill:#9f9f9f; stroke:none;" d="M244.667 398.333L245.333 398.667L244.667 398.333z"/>
<path style="fill:#eeeeee; stroke:none;" d="M246 398L246 399L251 400L251 399L246 398z"/>
<path style="fill:#5c5c5c; stroke:none;" d="M324 398L325 399L324 398M333 398L334 399L333 398z"/>
<path style="fill:#9f9f9f; stroke:none;" d="M217 399L218 400L217 399z"/>
<path style="fill:#5c5c5c; stroke:none;" d="M218.667 399.333L219.333 399.667L218.667 399.333M246 399L247 400L246 399z"/>
<path style="fill:#9f9f9f; stroke:none;" d="M247 399L248 400L247 399M333 399L334 400L333 399M220 400L221 401L220 400z"/>
<path style="fill:#5c5c5c; stroke:none;" d="M221.667 400.333L222.333 400.667L221.667 400.333M249 400L250 401L249 400z"/>
<path style="fill:#9f9f9f; stroke:none;" d="M250.667 400.333L251.333 400.667L250.667 400.333z"/>
<path style="fill:#eeeeee; stroke:none;" d="M252 400L252 401L260 403L260 402L252 400z"/>
<path style="fill:#9f9f9f; stroke:none;" d="M323 400L324 401L323 400M223 401L224 402L223 401z"/>
<path style="fill:#5c5c5c; stroke:none;" d="M224 401L225 402L224 401M252 401L253 402L252 401z"/>
<path style="fill:#9f9f9f; stroke:none;" d="M253 401L254 402L253 401z"/>
<path style="fill:#5c5c5c; stroke:none;" d="M323 401L324 402L323 401M332 401L333 402L332 401z"/>
<path style="fill:#9f9f9f; stroke:none;" d="M226 402L227 403L226 402z"/>
<path style="fill:#5c5c5c; stroke:none;" d="M227.667 402.333L228.333 402.667L227.667 402.333M255 402L256 403L255 402z"/>
<path style="fill:#9f9f9f; stroke:none;" d="M256 402L257 403L256 402M332 402L333 403L332 402M229.667 403.333L230.333 403.667L229.667 403.333z"/>
<path style="fill:#5c5c5c; stroke:none;" d="M231.667 403.333L232.333 403.667L231.667 403.333M258.667 403.333L259.333 403.667L258.667 403.333z"/>
<path style="fill:#9f9f9f; stroke:none;" d="M260 403L261 404L260 403z"/>
<path style="fill:#eeeeee; stroke:none;" d="M261 403L261 404L264 404L261 403z"/>
<path style="fill:#9f9f9f; stroke:none;" d="M322 403L323 404L322 403z"/>
<path style="fill:#5c5c5c; stroke:none;" d="M331.333 403.667L331.667 404.333L331.333 403.667z"/>
<path style="fill:#eeeeee; stroke:none;" d="M230 404L230 405L233 405L230 404z"/>
<path style="fill:#9f9f9f; stroke:none;" d="M233.667 404.333L234.333 404.667L233.667 404.333z"/>
<path style="fill:#5c5c5c; stroke:none;" d="M235 404L236 405L235 404M262 404L263 405L262 404z"/>
<path style="fill:#9f9f9f; stroke:none;" d="M263.667 404.333L264.333 404.667L263.667 404.333z"/>
<path style="fill:#eeeeee; stroke:none;" d="M265 404L265 405L270 406L270 405L265 404z"/>
<path style="fill:#5c5c5c; stroke:none;" d="M322 404L323 405L322 404z"/>
<path style="fill:#eeeeee; stroke:none;" d="M234 405L234 406L248 410L248 409L234 405z"/>
<path style="fill:#9f9f9f; stroke:none;" d="M236 405L237 406L236 405z"/>
<path style="fill:#5c5c5c; stroke:none;" d="M237.667 405.333L238.333 405.667L237.667 405.333M265 405L266 406L265 405z"/>
<path style="fill:#9f9f9f; stroke:none;" d="M266 405L267 406L266 405M331 405L332 406L331 405M239 406L240 407L239 406z"/>
<path style="fill:#5c5c5c; stroke:none;" d="M240.667 406.333L241.333 406.667L240.667 406.333M268 406L269 407L268 406z"/>
<path style="fill:#9f9f9f; stroke:none;" d="M269.667 406.333L270.333 406.667L269.667 406.333z"/>
<path style="fill:#eeeeee; stroke:none;" d="M271 406L271 407L276 408L276 407L271 406z"/>
<path style="fill:#9f9f9f; stroke:none;" d="M321.333 406.667L321.667 407.333L321.333 406.667M242 407L243 408L242 407z"/>
<path style="fill:#5c5c5c; stroke:none;" d="M243.667 407.333L244.333 407.667L243.667 407.333M271 407L272 408L271 407z"/>
<path style="fill:#9f9f9f; stroke:none;" d="M272 407L273 408L272 407z"/>
<path style="fill:#5c5c5c; stroke:none;" d="M330 407L331 408L330 407z"/>
<path style="fill:#9f9f9f; stroke:none;" d="M245 408L246 409L245 408z"/>
<path style="fill:#5c5c5c; stroke:none;" d="M246 408L247 409L246 408M274 408L275 409L274 408z"/>
<path style="fill:#9f9f9f; stroke:none;" d="M275.667 408.333L276.333 408.667L275.667 408.333z"/>
<path style="fill:#eeeeee; stroke:none;" d="M277.667 408.333L278.333 408.667L277.667 408.333z"/>
<path style="fill:#5c5c5c; stroke:none;" d="M321 408L322 409L321 408z"/>
<path style="fill:#9f9f9f; stroke:none;" d="M330 408L331 409L330 408M248.667 409.333L249.333 409.667L248.667 409.333z"/>
<path style="fill:#5c5c5c; stroke:none;" d="M250.667 409.333L251.333 409.667L250.667 409.333M277.667 409.333L278.333 409.667L277.667 409.333z"/>
<path style="fill:#9f9f9f; stroke:none;" d="M279 409L280 410L279 409z"/>
<path style="fill:#eeeeee; stroke:none;" d="M280 409L280 410L283 410L280 409z"/>
<path style="fill:#5c5c5c; stroke:none;" d="M329.333 409.667L329.667 410.333L329.333 409.667z"/>
<path style="fill:#eeeeee; stroke:none;" d="M250 410L250 411L277 419L277 418L250 410z"/>
<path style="fill:#9f9f9f; stroke:none;" d="M252.667 410.333L253.333 410.667L252.667 410.333z"/>
<path style="fill:#5c5c5c; stroke:none;" d="M254 410L255 411L254 410M281.667 410.333L282.333 410.667L281.667 410.333z"/>
<path style="fill:#9f9f9f; stroke:none;" d="M283 410L284 411L283 410z"/>
<path style="fill:#eeeeee; stroke:none;" d="M284.667 410.333L285.333 410.667L284.667 410.333z"/>
<path style="fill:#9f9f9f; stroke:none;" d="M320 410L321 411L320 410M255.667 411.333L256.333 411.667L255.667 411.333z"/>
<path style="fill:#5c5c5c; stroke:none;" d="M257 411L258 412L257 411M284 411L285 412L284 411z"/>
<path style="fill:#9f9f9f; stroke:none;" d="M285.667 411.333L286.333 411.667L285.667 411.333z"/>
<path style="fill:#eeeeee; stroke:none;" d="M287.667 411.333L288.333 411.667L287.667 411.333z"/>
<path style="fill:#5c5c5c; stroke:none;" d="M320.333 411.667L320.667 412.333L320.333 411.667z"/>
<path style="fill:#9f9f9f; stroke:none;" d="M329 411L330 412L329 411M258 412L259 413L258 412z"/>
<path style="fill:#5c5c5c; stroke:none;" d="M259.667 412.333L260.333 412.667L259.667 412.333M287 412L288 413L287 412z"/>
<path style="fill:#9f9f9f; stroke:none;" d="M288.667 412.333L289.333 412.667L288.667 412.333z"/>
<path style="fill:#eeeeee; stroke:none;" d="M290 412L290 413L295 414L295 413L290 412z"/>
<path style="fill:#9f9f9f; stroke:none;" d="M261 413L262 414L261 413z"/>
<path style="fill:#5c5c5c; stroke:none;" d="M262.667 413.333L263.333 413.667L262.667 413.333M290 413L291 414L290 413z"/>
<path style="fill:#9f9f9f; stroke:none;" d="M291 413L292 414L291 413M319 413L320 414L319 413z"/>
<path style="fill:#5c5c5c; stroke:none;" d="M328 413L329 414L328 413z"/>
<path style="fill:#9f9f9f; stroke:none;" d="M264 414L265 415L264 414z"/>
<path style="fill:#5c5c5c; stroke:none;" d="M265 414L266 415L265 414M293 414L294 415L293 414z"/>
<path style="fill:#9f9f9f; stroke:none;" d="M294.667 414.333L295.333 414.667L294.667 414.333z"/>
<path style="fill:#eeeeee; stroke:none;" d="M296.667 414.333L297.333 414.667L296.667 414.333z"/>
<path style="fill:#5c5c5c; stroke:none;" d="M319 414L320 415L319 414z"/>
<path style="fill:#9f9f9f; stroke:none;" d="M328.333 414.667L328.667 415.333L328.333 414.667M267.667 415.333L268.333 415.667L267.667 415.333z"/>
<path style="fill:#5c5c5c; stroke:none;" d="M269.667 415.333L270.333 415.667L269.667 415.333M296.667 415.333L297.333 415.667L296.667 415.333z"/>
<path style="fill:#9f9f9f; stroke:none;" d="M298 415L299 416L298 415z"/>
<path style="fill:#eeeeee; stroke:none;" d="M299 415L299 416L302 416L299 415z"/>
<path style="fill:#9f9f9f; stroke:none;" d="M318 415L319 416L318 415M271 416L272 417L271 416z"/>
<path style="fill:#5c5c5c; stroke:none;" d="M272.667 416.333L273.333 416.667L272.667 416.333M300.667 416.333L301.333 416.667L300.667 416.333z"/>
<path style="fill:#9f9f9f; stroke:none;" d="M302 416L303 417L302 416z"/>
<path style="fill:#eeeeee; stroke:none;" d="M303.667 416.333L304.333 416.667L303.667 416.333z"/>
<path style="fill:#9f9f9f; stroke:none;" d="M317 416L318 417L317 416z"/>
<path style="fill:#5c5c5c; stroke:none;" d="M327.333 416.667L327.667 417.333L327.333 416.667z"/>
<path style="fill:#9f9f9f; stroke:none;" d="M274.667 417.333L275.333 417.667L274.667 417.333z"/>
<path style="fill:#5c5c5c; stroke:none;" d="M276 417L277 418L276 417M303 417L304 418L303 417z"/>
<path style="fill:#9f9f9f; stroke:none;" d="M304.667 417.333L305.333 417.667L304.667 417.333z"/>
<path style="fill:#eeeeee; stroke:none;" d="M306.667 417.333L307.333 417.667L306.667 417.333z"/>
<path style="fill:#5c5c5c; stroke:none;" d="M316 417L317 418L316 417z"/>
<path style="fill:#9f9f9f; stroke:none;" d="M277 418L278 419L277 418z"/>
<path style="fill:#5c5c5c; stroke:none;" d="M278.667 418.333L279.333 418.667L278.667 418.333M306 418L307 419L306 418z"/>
<path style="fill:#9f9f9f; stroke:none;" d="M307.667 418.333L308.333 418.667L307.667 418.333M314 418L315 419L314 418z"/>
<path style="fill:#5c5c5c; stroke:none;" d="M315 418L316 419L315 418z"/>
<path style="fill:#9f9f9f; stroke:none;" d="M327 418L328 419L327 418M280.667 419.333L281.333 419.667L280.667 419.333z"/>
<path style="fill:#5c5c5c; stroke:none;" d="M282 419L283 420L282 419M309 419L309 420L314 420L309 419z"/>
<path style="fill:#9f9f9f; stroke:none;" d="M326 419L327 420L326 419M283 420L284 421L283 420z"/>
<path style="fill:#5c5c5c; stroke:none;" d="M284.667 420.333L285.333 420.667L284.667 420.333M325 420L326 421L325 420z"/>
<path style="fill:#9f9f9f; stroke:none;" d="M286.667 421.333L287.333 421.667L286.667 421.333z"/>
<path style="fill:#5c5c5c; stroke:none;" d="M288.667 421.333L289.333 421.667L288.667 421.333M324 421L325 422L324 421z"/>
<path style="fill:#9f9f9f; stroke:none;" d="M290.667 422.333L291.333 422.667L290.667 422.333z"/>
<path style="fill:#5c5c5c; stroke:none;" d="M292 422L293 423L292 422M323 422L324 423L323 422z"/>
<path style="fill:#9f9f9f; stroke:none;" d="M293.667 423.333L294.333 423.667L293.667 423.333z"/>
<path style="fill:#5c5c5c; stroke:none;" d="M295 423L296 424L295 423M322 423L323 424L322 423z"/>
<path style="fill:#9f9f9f; stroke:none;" d="M296 424L297 425L296 424z"/>
<path style="fill:#5c5c5c; stroke:none;" d="M297.667 424.333L298.333 424.667L297.667 424.333M321 424L322 425L321 424z"/>
<path style="fill:#9f9f9f; stroke:none;" d="M299 425L300 426L299 425z"/>
<path style="fill:#5c5c5c; stroke:none;" d="M300.667 425.333L301.333 425.667L300.667 425.333M320 425L321 426L320 425z"/>
<path style="fill:#9f9f9f; stroke:none;" d="M302.667 426.333L303.333 426.667L302.667 426.333z"/>
<path style="fill:#5c5c5c; stroke:none;" d="M304 426L305 427L304 426M318 426L319 427L318 426z"/>
<path style="fill:#9f9f9f; stroke:none;" d="M319 426L320 427L319 426M305 427L306 428L305 427z"/>
<path style="fill:#5c5c5c; stroke:none;" d="M306 427L306 428L309 428L306 427M314.667 427.333L315.333 427.667L314.667 427.333z"/>
<path style="fill:#9f9f9f; stroke:none;" d="M316 427L317 428L316 427z"/>
</svg>
